<svg width="65" height="64" viewBox="0 0 65 64" fill="none" xmlns="http://www.w3.org/2000/svg">
<g clip-path="url(#clip0_2221_1952)">
<path d="M32.1914 0C14.5111 0 0.191406 14.3197 0.191406 32C0.191406 49.6802 14.5111 63.9999 32.1914 63.9999C49.8717 63.9999 64.1914 49.6802 64.1914 32C64.1914 14.3197 49.8717 0 32.1914 0ZM32.1914 59.2018C17.1622 59.2018 4.98955 47.0291 4.98955 32C4.98955 16.9708 17.1622 4.79813 32.1914 4.79813C47.2206 4.79813 59.3933 16.9708 59.3933 32C59.3933 47.0291 47.2206 59.2018 32.1914 59.2018Z" fill="#99A1AF"/>
<path d="M35.3644 23.4495C35.3644 23.4122 35.3644 23.3562 35.3644 23.3188C35.4017 20.4997 34.3749 17.8113 32.4332 15.7576C32.3025 15.6082 32.1718 15.4776 32.0224 15.3469C31.9851 15.3095 31.9292 15.2722 31.8918 15.2348C31.7985 15.1415 31.6864 15.0481 31.5931 14.9735C31.5371 14.9361 31.4997 14.8801 31.4437 14.8428C31.3503 14.7681 31.2384 14.6747 31.145 14.6001C31.089 14.5627 31.033 14.5254 30.9956 14.488C30.8836 14.4134 30.7903 14.3387 30.6783 14.264C30.6223 14.2267 30.5849 14.1893 30.5289 14.1707C30.4169 14.096 30.2862 14.0213 30.1741 13.9466C30.1368 13.928 30.0994 13.8906 30.0434 13.872C29.8941 13.7786 29.7448 13.7039 29.6141 13.6292C29.6141 13.6292 29.5768 13.6106 29.5581 13.5919C28.1392 12.8638 26.5709 12.453 24.9279 12.397C19.0096 12.229 14.0435 16.9151 13.8755 22.8334C13.7074 28.7517 18.3936 33.7179 24.3119 33.8859L27.3364 33.9793L27.4857 29.0131L24.4612 28.9198C21.2687 28.8264 18.7482 26.1566 18.8416 22.9641C18.8789 21.4145 19.5324 19.977 20.6526 18.9315C21.7728 17.8673 23.2476 17.3072 24.7972 17.3632C26.3468 17.4005 27.7471 18.0726 28.7552 19.0995C28.8112 19.1555 28.8486 19.1928 28.9046 19.2488C28.998 19.3422 29.0726 19.4355 29.1473 19.5289C29.1847 19.5849 29.222 19.6222 29.2593 19.6782C29.334 19.7903 29.4087 19.8836 29.4834 19.9956C29.5207 20.033 29.5395 20.089 29.5581 20.1263C29.6141 20.2383 29.6888 20.3317 29.7448 20.4437C29.7634 20.481 29.8007 20.537 29.8194 20.5744C29.8754 20.7051 29.9315 20.8171 29.9875 20.9478C29.9875 20.9851 30.0249 21.0225 30.0249 21.0598C30.0809 21.1905 30.1181 21.3212 30.1555 21.4519C30.2301 21.7319 30.3049 22.012 30.3422 22.292C30.3422 22.3293 30.3422 22.3854 30.3422 22.4414C30.3422 22.5534 30.3609 22.6467 30.3796 22.7587C30.3796 22.9268 30.3796 23.1135 30.3796 23.2815L29.9129 39.8042C29.9129 39.8229 29.9129 39.8603 29.9129 39.8789C29.9129 40.0283 29.9129 40.1963 29.9129 40.3457C29.9129 40.383 29.9129 40.4017 29.9129 40.439C29.9129 40.5884 29.9128 40.7377 29.9314 40.8871C29.9314 40.8871 29.9314 40.8871 29.9314 40.9058C30.1181 43.3515 31.1263 45.6666 32.8439 47.4775C34.8229 49.5685 37.474 50.7634 40.3492 50.8381C46.2675 51.0061 51.2336 46.32 51.4016 40.4017C51.5697 34.4834 46.8836 29.5172 40.9653 29.3492L37.9408 29.2558L37.7914 34.222L40.8159 34.3153C44.0085 34.4087 46.5289 37.0785 46.4355 40.271C46.3982 41.8206 45.7447 43.2581 44.6245 44.3037C43.5043 45.3678 42.0295 45.9279 40.4799 45.8719C39.453 45.8346 38.5009 45.5359 37.6607 45.0504C37.474 44.9384 37.2874 44.8077 37.1194 44.6771C37.1007 44.6584 37.0633 44.6397 37.0446 44.621C36.7832 44.4157 36.5593 44.1916 36.3353 43.9489C36.2606 43.8743 36.2045 43.7996 36.1298 43.7249C36.1298 43.7249 36.1298 43.7249 36.1111 43.7062C36.0551 43.6315 35.9992 43.5755 35.9618 43.5009C35.9432 43.4635 35.9058 43.4262 35.8871 43.3888C35.8497 43.3142 35.7937 43.2581 35.7564 43.1835C35.7564 43.1835 35.7564 43.1648 35.7564 43.1461C35.7377 43.1088 35.7004 43.0528 35.6817 43.0154C35.6444 42.9594 35.6071 42.8847 35.5697 42.8287C35.5324 42.7541 35.4951 42.6981 35.4577 42.6234C35.4017 42.5114 35.3456 42.3807 35.2896 42.2687C35.271 42.2126 35.2524 42.1566 35.2337 42.1006C35.1963 41.9886 35.159 41.8766 35.1217 41.7459C35.1217 41.7086 35.0843 41.6526 35.0843 41.6152C35.047 41.4845 35.0096 41.3352 34.991 41.1858C34.991 41.1485 34.991 41.1298 34.991 41.0925C34.991 41.0738 34.991 41.0551 34.991 41.0364C34.9723 40.9058 34.9537 40.7564 34.935 40.6071C34.935 40.5697 34.935 40.5324 34.935 40.495C34.935 40.327 34.935 40.159 34.935 39.9723L35.4018 23.4495H35.3644Z" fill="#99A1AF"/>
</g>
<defs>
<clipPath id="clip0_2221_1952">
<rect width="65" height="64" fill="white"/>
</clipPath>
</defs>
</svg>
