<svg width="182" height="64" viewBox="0 0 182 64" fill="none" xmlns="http://www.w3.org/2000/svg">
<g clip-path="url(#clip0_2221_1955)">
<path fill-rule="evenodd" clip-rule="evenodd" d="M42.1085 3.13734C42.5866 6.42058 40.4553 13.4135 37.8671 17.0537C35.8232 19.9284 35.8232 19.9495 37.8776 19.9495C39.8351 19.9495 39.9678 20.8782 40.3185 37.108C40.7418 56.6621 41.7874 59.9632 47.5588 59.9632C51.2127 59.9632 51.6466 61.4848 48.4771 63.1812C42.595 66.3296 33.6888 59.958 32.2746 51.5909L31.5428 47.2599L27.3129 51.0812C22.2291 55.6744 17.3505 57.8573 12.1688 57.8573C6.92484 57.8573 0.205682 51.3666 0.032991 46.1353C-0.372412 33.79 2.73603 29.6749 21.8363 17.2748C32.7032 10.2187 39.1107 4.20929 39.1107 1.07137C39.1107 -1.25154 41.7316 0.5554 42.1085 3.13734ZM10.4387 38.8328C12.0192 37.0648 17.1031 33.0698 21.7363 29.955C26.3694 26.8402 30.574 24.2625 31.0805 24.2267C31.586 24.1909 31.7871 26.7371 31.526 29.8855C30.9542 36.7763 28.0089 41.5011 20.9023 46.9272C9.63735 55.5291 1.28605 49.0679 10.4387 38.8328Z" fill="#99A1AF"/>
<path d="M69.191 20.6015L72.8059 23.3582V35.1803C72.8059 45.3006 73.0828 47.2518 74.7339 48.746C75.7943 49.7063 76.9063 50.2475 77.2043 49.9484C77.5023 49.6504 77.517 43.4567 77.2369 36.1859L76.7283 22.9644L80.8213 23.2992L84.9153 23.6351L85.2165 35.177C85.445 43.9558 85.9199 47.1644 87.2003 48.5775C88.1249 49.6 89.2926 50.1833 89.7949 49.8727C90.2961 49.5631 90.7068 43.4146 90.7068 36.2089V23.1087H94.3923H98.0778V35.5794V48.051L92.8876 52.4272C87.015 57.3794 85.7472 57.649 82.0449 54.7374L79.4176 52.6704L77.0105 55.2324C74.6613 57.7344 74.5307 57.7511 71.5012 55.9831C66.7986 53.2369 65.1085 48.9986 64.5873 38.6403C64.3324 33.5733 63.8144 29.4266 63.4342 29.4266C63.0552 29.4266 61.622 30.2132 60.25 31.1735C57.8418 32.8604 57.6796 32.8162 55.541 29.8741L53.3255 26.8268L52.799 41.5519L52.2725 56.2781L48.3238 56.6044L44.375 56.932V43.2609V29.5898L50.1012 24.6976C56.4181 19.301 57.8618 19.3158 62.1938 24.824L64.3819 27.6049V22.7243C64.3819 20.0403 64.6505 17.8438 64.979 17.8438C65.3065 17.8438 67.2019 19.0841 69.191 20.6015Z" fill="#99A1AF"/>
<path fill-rule="evenodd" clip-rule="evenodd" d="M121.939 15.272C122.286 16.1733 121.789 18.8953 120.836 21.3203C119.765 24.0497 119.513 25.8661 120.174 26.0862C120.801 26.2947 121.244 30.6836 121.244 36.6741C121.244 47.0724 122.023 49.4332 125.453 49.4332C126.864 49.4332 127.066 48.3434 126.705 42.6772C126.167 34.2311 128.59 29.3768 136.272 23.519C142.383 18.8584 143.956 17.3769 145.421 14.896C146.341 13.3355 146.609 13.3071 147.505 14.676C148.687 16.4818 147.974 20.478 145.863 23.8612C144.02 26.817 144.039 27.3203 145.99 27.3203C147.284 27.3203 147.569 29.1431 147.569 37.4048C147.569 47.1472 147.673 47.5936 150.647 50.5673C156.342 56.2619 167.329 53.8716 171.376 46.0573C176.542 36.0844 171.548 25.6776 161.729 25.9556C157.583 26.0736 156.673 23.7359 160.468 22.7187C167.325 20.8813 175.491 24.0213 179.118 29.8875C181.084 33.0697 181.429 34.8504 181.063 39.9163C180.549 47.0156 177.741 51.9025 172.021 55.6522C165.126 60.1727 152.382 60.2169 146.294 55.7417C142.876 53.2292 142.304 53.1555 142.304 55.2247C142.304 57.6571 134.769 57.2801 131.466 54.6813L128.768 52.5595L128.093 54.6813C127.193 57.517 121.405 57.536 117.819 54.715C115.171 52.6311 115.161 52.6311 114.616 54.715C113.721 58.1373 107.997 57.5002 104.325 53.5694C100.881 49.8828 99.6847 45.1149 100.466 38.1904C101.124 32.3515 103.244 29.3515 111.333 22.8177C114.757 20.0515 117.986 16.8525 118.51 15.71C119.651 13.2123 121.08 13.0301 121.939 15.272ZM108.824 41.8917C108.572 37.2037 108.96 35.5811 110.931 33.0686L113.347 29.9918L113.653 39.3181C113.822 44.4483 113.68 48.9246 113.338 49.2658C112.997 49.6059 111.913 49.3795 110.927 48.7603C109.672 47.9727 109.041 45.913 108.824 41.8917ZM136.197 48.1696C134.247 46.2195 134.628 36.6446 136.776 33.6098C138.611 31.0153 138.62 31.0363 139.272 39.0475C139.631 43.4701 140.252 47.6157 140.651 48.2612C141.639 49.8597 137.809 49.7817 136.197 48.1696Z" fill="#99A1AF"/>
<path d="M166.439 13.3687C167.461 15.1241 167.514 15.1241 167.544 13.3687C167.561 12.3558 168.05 11.526 168.629 11.526C169.208 11.526 169.675 13.0655 169.666 14.9482C169.654 17.5449 169.404 17.9893 168.629 16.791C168.068 15.9222 167.601 15.7243 167.592 16.3519C167.556 18.877 164.411 17.3796 164.274 14.7724C164.143 12.2936 164.09 12.2631 163.674 14.4217C163.238 16.6878 161.258 17.8366 161.258 15.8243C161.258 15.2926 160.971 14.1079 160.619 13.1918C159.701 10.7994 165.037 10.9626 166.439 13.3687Z" fill="#99A1AF"/>
<path d="M79.3054 10.1089C81.0997 11.7326 81.3703 11.7253 83.2689 10.0078C85.2106 8.25035 85.4307 8.25457 87.9737 10.1079C91.2738 12.5119 91.2843 12.7235 88.2538 15.5697L85.7992 17.8758L83.8638 15.7372L81.9284 13.5985L79.4844 15.8941C77.1152 18.1201 76.9773 18.1317 74.9239 16.2731C72.3525 13.946 72.2809 12.7993 74.5501 10.2921C76.6814 7.93656 76.8972 7.92919 79.3054 10.1089Z" fill="#99A1AF"/>
<path d="M84.2114 3.43842L86.5069 5.88242L83.8428 8.38539L81.1788 10.8883L78.9696 8.68023C76.7983 6.5079 76.7941 6.42577 78.7326 3.7659C81.1651 0.428966 81.3725 0.416329 84.2114 3.43842Z" fill="#99A1AF"/>
</g>
<defs>
<clipPath id="clip0_2221_1955">
<rect width="182" height="64" fill="white"/>
</clipPath>
</defs>
</svg>
