<svg width="381" height="64" viewBox="0 0 381 64" fill="none" xmlns="http://www.w3.org/2000/svg">
<g clip-path="url(#clip0_2221_1970)">
<path d="M212.066 0.605404C209.99 1.38378 208.434 5.96755 208.434 11.2432V16.4324H211.807C214.228 16.4324 215.698 15.827 217.428 14.1837C219.417 12.1081 219.677 11.1567 219.677 5.96755V0L216.477 0.0864863C214.661 0.0864863 212.671 0.345946 212.066 0.605404Z" fill="#99A1AF"/>
<path d="M14.7027 10.0323C8.38917 10.9836 6.65944 11.589 4.32431 13.5782C2.07567 15.3944 1.64324 16.3458 1.9027 18.9403C2.16216 21.7079 2.42162 22.0539 4.92972 22.3133C7.35133 22.5728 7.95674 22.1403 9.94592 19.1133C13.5783 13.2323 18.1621 14.789 18.1621 21.7944C18.1621 24.7349 18.0756 24.7349 11.7621 26.6376C3.71891 28.9728 0 32.6917 0 38.3133C0 45.1457 4.49729 48.4322 13.8378 48.4322C19.1135 48.4322 24.908 46.7024 26.1189 44.7133C26.4648 44.1079 26.8107 37.3619 26.8107 29.6646C26.8107 16.3458 26.7243 15.5674 24.8216 13.4052C23.0054 11.2431 17.9891 9.59987 14.7027 10.0323ZM18.1621 35.8917C18.1621 40.5619 17.9027 41.5998 16.4324 42.3781C12.627 44.4538 8.04322 40.3025 9.16755 35.8917C9.77295 33.47 14.0108 30.2701 16.6919 30.2701C17.9027 30.2701 18.1621 31.1349 18.1621 35.8917Z" fill="#99A1AF"/>
<path d="M42.9003 10.8106C34.7706 12.4538 34.5977 12.7998 34.5977 31.6538V47.5673H39.3544H44.1111V33.297C44.1111 20.1511 44.2841 18.8538 45.8409 17.2971C47.9165 15.2214 50.0787 15.1349 52.4138 16.7782C53.8841 17.9025 54.0571 19.3727 54.3165 32.8646L54.576 47.6538L59.0733 47.3943L63.5706 47.1348L63.83 32.7781C64.0895 17.2106 64.3489 16.1727 68.7597 16.1727C73.1705 16.1727 73.43 17.2106 73.6895 32.7781L73.9489 47.1348L78.5327 47.3943L83.03 47.6538V32.4322C83.03 15.5673 82.4246 13.1457 77.9273 11.243C74.3814 9.77281 66.6841 10.0322 62.4462 11.6755C59.3327 12.9728 58.7273 12.9728 56.9111 11.8484C53.9706 10.0322 48.6949 9.59984 42.9003 10.8106Z" fill="#99A1AF"/>
<path d="M102.401 10.3789C95.5686 11.4167 90.6389 16.4329 92.4551 20.4113C93.8388 23.4383 98.5091 23.0924 100.066 19.8059C101.623 16.5194 103.439 15.3086 105.86 15.914C107.936 16.4329 108.974 18.5086 108.974 22.487C108.974 24.3897 108.369 24.8221 103.439 26.2924C92.8875 29.3194 88.5632 34.4221 90.7253 41.4275C92.1956 46.5302 96.8659 48.6923 105.514 48.2599C110.704 48.0869 112.866 47.568 114.769 46.1842L117.19 44.368L117.45 30.9626C117.536 23.5248 117.277 16.5194 116.844 15.3086C115.201 11.1573 109.666 9.2546 102.401 10.3789ZM108.542 40.3896C107.59 44.4545 100.931 43.5896 99.8064 39.2653C98.9415 35.8924 100.758 32.9518 104.909 31.1356L108.542 29.4924L108.801 33.9032C108.974 36.4113 108.887 39.2653 108.542 40.3896Z" fill="#99A1AF"/>
<path d="M184.565 10.4653C178.165 11.2436 175.398 12.8869 174.533 16.1733C174.1 17.7301 173.927 25.3409 174.014 33.0382L174.273 47.1354L178.857 47.3949L183.354 47.6544V33.5571C183.354 22.1409 183.614 19.0274 184.738 17.4706C186.381 15.049 190.533 14.9625 192.868 17.2977C194.425 18.8544 194.598 20.1517 194.598 33.3841V47.6544L199.181 47.3949L203.679 47.1354L203.938 33.6436C204.198 18.076 203.419 14.2706 199.354 12.022C196.241 10.2923 190.533 9.68686 184.565 10.4653Z" fill="#99A1AF"/>
<path d="M270.874 10.5512C267.847 10.8972 264.387 11.762 263.263 12.5404C261.188 13.8377 261.188 13.9242 261.188 30.789V47.6539L265.771 47.3944L270.269 47.1349L270.701 31.5674C271.133 15.9999 271.133 15.9999 273.209 15.7404C274.506 15.481 276.063 16.2593 277.706 17.8161C279.869 19.8918 280.474 20.0647 282.377 19.1999C283.933 18.508 284.539 17.5566 284.539 15.7404C284.539 10.8972 280.56 9.4269 270.874 10.5512Z" fill="#99A1AF"/>
<path d="M302.271 9.94574C301.838 10.1187 299.936 10.4647 298.206 10.8106C296.39 11.0701 293.795 12.2809 292.325 13.5782C290.076 15.3944 289.644 16.3458 289.903 18.9403C290.163 21.7079 290.422 22.0538 292.93 22.3133C295.352 22.5728 295.957 22.1403 297.947 19.1133C301.579 13.2322 306.163 14.789 306.163 21.7944C306.163 24.562 305.99 24.6484 299.763 26.6376C289.384 29.7511 285.32 35.5457 288.606 42.2916C290.941 46.9619 294.747 48.6051 302.876 48.2592C307.979 48.0862 310.055 47.5673 311.957 46.1835L314.379 44.3673L314.638 29.9241L314.811 15.4809L312.303 12.8863C310.833 11.5025 308.844 10.3782 307.633 10.3782C306.422 10.3782 304.952 10.2052 304.26 10.0323C303.655 9.77277 302.79 9.77277 302.271 9.94574ZM306.163 34.9403C306.163 38.9187 305.73 40.9079 304.779 41.9457C302.79 43.8484 300.195 43.243 298.119 40.4754C295.525 37.016 296.822 33.9025 301.838 31.3079C303.914 30.27 305.817 29.4052 305.903 29.4052C306.076 29.4052 306.163 31.9133 306.163 34.9403Z" fill="#99A1AF"/>
<path d="M364.106 10.3787C355.976 11.7625 351.133 18.5084 351.133 28.4543C351.133 38.4867 354.246 44.7138 360.387 47.2219C369.381 51.0273 380.538 45.1462 380.538 36.6705C380.538 32.7786 378.808 32.8651 374.83 36.757C371.63 39.957 367.565 40.7354 363.933 38.8327C362.376 37.9678 358.311 30.53 359.09 29.8381C359.263 29.6651 363.673 28.8003 368.862 28.0219C374.138 27.2435 378.895 26.1192 379.587 25.6868C382.268 23.5246 378.722 14.3571 374.225 11.9355C371.371 10.3787 367.392 9.77331 364.106 10.3787ZM369.727 18.4219C371.803 21.3625 371.284 22.2273 366.96 22.9192C364.625 23.1787 361.944 23.6976 360.906 23.957C358.484 24.476 358.225 22.1408 360.3 19.2003C362.981 15.3949 367.392 15.049 369.727 18.4219Z" fill="#99A1AF"/>
<path d="M232.217 11.7618C228.152 13.8375 226.509 15.6537 224.347 20.3239C220.109 29.3185 222.271 42.8968 228.671 46.7887C231.871 48.6914 237.32 48.9509 240.693 47.2212C242.941 46.0104 243.028 46.0104 243.028 48.086C243.028 51.5455 240.606 56.4752 237.666 58.8968C234.466 61.5779 234.812 63.9995 238.271 63.9995C243.979 63.9995 250.033 57.686 251.676 49.9022C252.282 47.2212 252.541 39.1779 252.368 29.8374L252.109 14.3564L249.168 12.3672C245.536 9.9456 236.368 9.59965 232.217 11.7618ZM242.163 17.2969C243.806 18.9401 243.893 19.978 243.72 29.232C243.46 39.1779 243.46 39.3509 241.125 40.3887C235.763 42.9833 231.785 38.2266 231.785 29.232C231.785 23.005 233.774 18.3347 237.06 16.6915C239.828 15.2212 240.174 15.3077 242.163 17.2969Z" fill="#99A1AF"/>
<path d="M124.973 12.9729C124.108 15.827 125.233 16.4324 131.546 16.4324C134.833 16.4324 137.514 16.6918 137.514 16.9513C137.514 17.2107 134.4 23.8702 130.595 31.7404C126.789 39.6107 123.676 46.4431 123.676 46.7891C123.676 47.2215 129.557 47.5674 136.649 47.5674H149.622V44.9728V42.3782H142.703C138.897 42.3782 135.784 42.2053 135.784 42.1188C135.784 41.9458 138.897 35.2864 142.703 27.4161C146.508 19.4594 149.622 12.627 149.622 12.108C149.622 11.5891 145.297 11.2432 137.6 11.2432C126.27 11.2432 125.492 11.3297 124.973 12.9729Z" fill="#99A1AF"/>
<path d="M156.539 29.4053V47.5674H161.296H166.053V29.4053V11.2432H161.296H156.539V29.4053Z" fill="#99A1AF"/>
<path d="M321.728 13.8378V16.4324H328.215C331.761 16.4324 334.701 16.6053 334.701 16.8648C334.701 17.0378 331.588 23.5242 327.782 31.2215C323.977 38.8323 320.863 45.6647 320.863 46.3566C320.863 47.308 323.285 47.5674 333.836 47.5674H346.809V44.9728V42.3782H339.89C336.085 42.3782 332.971 42.1188 332.971 41.8593C332.971 41.5999 335.825 35.3729 339.371 28.0215C342.917 20.6702 346.117 13.9243 346.377 12.9729C346.896 11.3297 346.463 11.2432 334.355 11.2432H321.728V13.8378Z" fill="#99A1AF"/>
</g>
<defs>
<clipPath id="clip0_2221_1970">
<rect width="381" height="64" fill="white"/>
</clipPath>
</defs>
</svg>
