<svg width="64" height="64" viewBox="0 0 64 64" fill="none" xmlns="http://www.w3.org/2000/svg">
<path d="M30.2807 20.8157C34.4717 31.0682 37.901 39.6665 37.9017 39.9225C37.9029 40.1785 36.7907 40.3886 35.4305 40.3886C32.4766 40.3886 32.5834 40.5663 26.6625 25.7866L22.6802 15.8449L22.5174 38.9905L22.3546 62.1361H19.566H16.7773V31.966V1.7959L19.7194 1.98541L22.6616 2.17493L30.2807 20.8157Z" fill="#99A1AF"/>
<path d="M14.9118 19.5725V22.3686H11.1837H7.45551V32.3104V42.2521H11.1837H14.9118V45.0482V47.8444H8.38755H1.86328V32.3104V16.7764H8.38755H14.9118V19.5725Z" fill="#99A1AF"/>
<path d="M62.1353 45.0481V47.8443H43.1839H24.2324V45.0481V42.252H43.1839H62.1353V45.0481Z" fill="#99A1AF"/>
<path d="M62.1363 19.5725V22.3686H47.5425H32.9492L32.0085 20.1181C31.4915 18.8803 31.0684 17.6221 31.0684 17.322C31.0684 17.0218 38.0587 16.7764 46.6023 16.7764H62.1363V19.5725Z" fill="#99A1AF"/>
<path d="M47.2231 8.38853V14.9128H44.427H41.6309V8.80298C41.6309 5.44204 41.8173 2.50612 42.0453 2.2787C42.2727 2.05067 43.531 1.86426 44.8414 1.86426H47.2231V8.38853Z" fill="#99A1AF"/>
<path d="M47.2231 32.3111V40.3888H44.427H41.6309V32.3111V24.2334H44.427H47.2231V32.3111Z" fill="#99A1AF"/>
<path d="M47.2233 55.9568V62.2046L44.3129 62.0151L41.4018 61.8255L39.0313 55.9674C37.7271 52.745 36.6602 50.0191 36.6602 49.9091C36.6602 49.7991 39.0369 49.709 41.9417 49.709H47.2233V55.9568Z" fill="#99A1AF"/>
</svg>
